<svg fill="none" xmlns="http://www.w3.org/2000/svg" viewBox="0 0 108 29" >
<g transform="translate(0.000000,29.000000) scale(0.100000,-0.100000)"
 stroke="none">
<path d="M0 233 l0 -56 23 21 c49 46 127 12 127 -55 0 -36 -38 -73 -75 -73
-12 0 -34 9 -49 21 l-26 20 0 -55 0 -56 540 0 540 0 0 145 0 145 -540 0 -540
0 0 -57z m257 20 c2 -6 -6 -15 -19 -19 l-23 -7 23 -8 c27 -10 29 -29 2 -36
-17 -5 -20 -14 -20 -60 0 -46 -3 -54 -17 -51 -14 2 -19 15 -21 56 -2 28 -7 52
-13 52 -19 0 -8 34 22 62 30 29 59 34 66 11z m53 2 c0 -8 -9 -15 -20 -15 -11
0 -20 7 -20 15 0 8 9 15 20 15 11 0 20 -7 20 -15z m640 -14 c0 -28 2 -29 33
-24 51 8 69 -16 65 -86 -2 -42 -7 -56 -18 -56 -11 0 -16 14 -20 50 -4 39 -9
51 -24 53 -25 5 -36 -14 -36 -66 0 -30 -4 -42 -12 -40 -9 3 -14 35 -16 101 -2
82 0 97 13 97 10 0 15 -10 15 -29z m-642 -93 c-2 -57 -6 -73 -18 -73 -12 0
-16 16 -18 73 -3 67 -2 72 18 72 20 0 21 -5 18 -72z m137 52 c20 -22 18 -23
-40 -24 -38 -1 -40 -3 -40 -31 0 -24 5 -31 23 -33 13 -2 29 1 36 7 10 8 16 7
25 -3 10 -11 7 -17 -11 -30 -32 -23 -65 -20 -93 9 -30 30 -32 64 -4 99 26 33
77 36 104 6z m145 2 c0 -9 -14 -34 -31 -55 l-30 -37 30 0 c24 0 31 -4 31 -20
0 -18 -7 -20 -55 -20 -70 0 -78 16 -35 70 l32 40 -31 0 c-24 0 -31 4 -31 20 0
18 7 20 60 20 51 0 60 -3 60 -18z m140 -2 c11 -11 20 -31 20 -45 0 -23 -3 -25
-50 -25 -31 0 -50 -4 -50 -11 0 -8 14 -10 40 -6 45 6 63 -9 35 -30 -50 -36
-119 0 -119 62 0 66 78 101 124 55z m155 7 c28 -21 10 -38 -35 -31 -33 5 -39
3 -45 -15 -12 -38 34 -68 61 -41 8 8 15 6 23 -4 10 -11 8 -17 -11 -30 -12 -9
-33 -16 -46 -16 -31 0 -72 43 -72 75 0 56 79 95 125 62z m-795 -182 c0 -8 -4
-15 -10 -15 -5 0 -10 7 -10 15 0 8 5 15 10 15 6 0 10 -7 10 -15z m100 -6 c0
-5 -4 -9 -8 -9 -5 0 -9 7 -9 15 0 8 4 12 9 9 4 -3 8 -9 8 -15z m75 11 c3 -5 1
-10 -4 -10 -6 0 -11 5 -11 10 0 6 2 10 4 10 3 0 8 -4 11 -10z m49 -5 c3 -8 1
-15 -4 -15 -6 0 -10 7 -10 15 0 8 2 15 4 15 2 0 6 -7 10 -15z m56 0 c0 -12
-19 -12 -23 0 -4 9 -1 12 9 8 7 -3 14 -7 14 -8z m40 -6 c0 -5 -4 -9 -8 -9 -5
0 -9 7 -9 15 0 8 4 12 9 9 4 -3 8 -9 8 -15z m65 11 c-3 -5 -1 -10 6 -10 7 0
10 -3 6 -6 -9 -9 -28 6 -22 17 4 5 8 9 11 9 3 0 2 -4 -1 -10z m66 -13 c-8 -8
-14 -7 -23 2 -11 10 -9 11 6 5 15 -6 17 -4 11 6 -6 9 -4 11 4 5 9 -5 10 -10 2
-18z m59 7 c0 -8 -6 -11 -15 -8 -8 4 -15 9 -15 13 0 4 7 8 15 8 8 0 15 -6 15
-13z m40 -5 c0 -5 -4 -9 -8 -9 -5 0 -9 7 -9 15 0 8 4 12 9 9 4 -3 8 -9 8 -15z
m94 6 c3 -8 1 -15 -4 -15 -6 0 -10 7 -10 15 0 8 2 15 4 15 2 0 6 -7 10 -15z
m92 3 c4 -7 3 -8 -4 -4 -7 4 -12 2 -12 -5 0 -7 -3 -10 -6 -6 -6 5 3 27 11 27
2 0 7 -5 11 -12z m54 -3 c0 -9 -6 -12 -15 -9 -8 4 -15 10 -15 15 0 5 7 9 15 9
8 0 15 -7 15 -15z m35 5 c-3 -5 -1 -10 6 -10 7 0 10 -3 6 -6 -9 -9 -28 6 -22
17 4 5 8 9 11 9 3 0 2 -4 -1 -10z m58 -5 c-3 -9 -8 -14 -10 -11 -3 3 -2 9 2
15 9 16 15 13 8 -4z"/>
<path d="M657 183 c-15 -14 -6 -23 23 -23 32 0 40 14 14 24 -20 8 -29 8 -37
-1z"/>
<path d="M44 166 c-12 -31 0 -51 31 -51 27 0 30 3 30 30 0 25 -4 30 -28 33
-17 2 -29 -2 -33 -12z"/>
</g>
</svg>
