<?xml version="1.0" encoding="utf-8"?>
<!-- Generator: Adobe Illustrator 27.2.0, SVG Export Plug-In . SVG Version: 6.00 Build 0)  -->
<svg version="1.1" id="katman_1" xmlns="http://www.w3.org/2000/svg" xmlns:xlink="http://www.w3.org/1999/xlink" x="0px" y="0px"
	 viewBox="20 200 500 100" xml:space="preserve">
<g>
	<path d="M137.39,216.02h-14.12c-0.75-11.86,14.12-7.91,14.12-7.91v-13.36c-33.51-3.39-30.49,21.27-30.49,21.27l-9.98,0.38v14.31
		h9.91V277h16.45l0.56-46.12h13.55V216.02z"/>
	<path d="M142.85,194.43v13.68h16.38v-13.68C159.23,194.43,143.42,195.12,142.85,194.43z"/>
	<rect x="142.85" y="216.2" width="16.38" height="60.8"/>
	<path d="M76.75,219.62c-4.72-2.68-10.19-4.02-16.43-4.02c-6.08,0-11.49,1.34-16.25,4.02c-4.76,2.68-8.48,6.38-11.15,11.09
		c-2.68,4.72-4.02,10.15-4.02,16.31c0,6.16,1.36,11.59,4.08,16.31c2.72,4.72,6.45,8.41,11.21,11.09c4.76,2.68,10.21,4.02,16.37,4.02
		c6.16,0,11.57-1.34,16.25-4.02c4.68-2.68,8.35-6.37,11.03-11.09c2.68-4.72,4.02-10.15,4.02-16.31c0-6.15-1.34-11.59-4.02-16.31
		C85.16,226,81.46,222.3,76.75,219.62z M72.91,255.3c-1.2,2.4-2.86,4.28-4.98,5.64c-2.12,1.36-4.58,2.04-7.38,2.04
		c-2.8,0-5.3-0.68-7.49-2.04c-2.2-1.36-3.9-3.24-5.1-5.64c-1.2-2.4-1.8-5.16-1.8-8.27c0-3.12,0.6-5.88,1.8-8.27
		c1.2-2.4,2.88-4.28,5.04-5.64c2.16-1.36,4.6-2.04,7.31-2.04c2.8,0,5.28,0.68,7.44,2.04c2.16,1.36,3.86,3.24,5.1,5.64
		c1.24,2.4,1.86,5.16,1.86,8.27C74.71,250.14,74.11,252.9,72.91,255.3z"/>
	<path d="M209.73,255.3c-1.12,2.48-2.86,4.48-5.22,6c-2.36,1.52-4.98,2.28-7.85,2.28c-2.96,0-5.6-0.72-7.91-2.16
		c-2.32-1.44-4.12-3.38-5.4-5.82c-1.28-2.44-1.92-5.29-1.92-8.57c0-3.28,0.64-6.15,1.92-8.63c1.28-2.48,3.04-4.42,5.28-5.82
		c2.24-1.4,4.84-2.1,7.79-2.1c2.88,0,5.5,0.7,7.85,2.1c2.36,1.4,4.1,3.26,5.22,5.58l14.87-5.28c-2.24-5.59-5.84-9.87-10.79-12.83
		c-4.96-2.96-10.43-4.44-16.43-4.44c-6.24,0-11.75,1.34-16.55,4.02c-4.8,2.68-8.56,6.38-11.27,11.09
		c-2.72,4.72-4.08,10.15-4.08,16.31c0,6.08,1.36,11.49,4.08,16.25c2.72,4.76,6.51,8.47,11.39,11.15c4.88,2.68,10.43,4.02,16.67,4.02
		c6.07,0,11.57-1.56,16.49-4.68s8.53-7.51,10.85-13.19L209.73,255.3z"/>
	<polygon points="277.96,228.44 277.96,217.04 228.56,217.04 228.56,230.12 258.41,230.12 228.56,265.49 228.56,277 278.08,277 
		278.08,264.05 248.02,264.05 	"/>
	<path d="M323.71,261.77c-1.96,1.36-4.5,2.04-7.61,2.04c-2.72,0-5.24-0.62-7.56-1.86c-2.32-1.24-4.16-3.06-5.52-5.46
		c-0.86-1.52-1.45-3.28-1.76-5.28h27.19h8.27h7.79c0-7.59-1.36-14.05-4.08-19.37c-2.72-5.32-6.3-9.35-10.73-12.11
		c-4.44-2.76-9.25-4.14-14.45-4.14c-6.08,0-11.45,1.34-16.13,4.02c-4.68,2.68-8.36,6.38-11.03,11.09
		c-2.68,4.72-4.02,10.15-4.02,16.31c0,6.16,1.3,11.59,3.9,16.31c2.6,4.72,6.18,8.41,10.73,11.09c4.56,2.68,9.79,4.02,15.71,4.02
		c4.72,0,8.91-0.64,12.59-1.92c3.68-1.28,6.83-3.14,9.47-5.58c2.64-2.44,4.84-5.34,6.6-8.69l-14.87-5.76
		C327.17,258.66,325.67,260.42,323.71,261.77z M302.54,237.37c1.04-2.6,2.58-4.54,4.62-5.82c2.04-1.28,4.54-1.92,7.5-1.92
		c2.8,0,5.24,0.7,7.32,2.1c2.08,1.4,3.7,3.68,4.86,6.84c0.04,0.1,0.06,0.2,0.1,0.3h-24.89
		C302.19,238.35,302.36,237.84,302.54,237.37z"/>
	<path d="M393.56,255.3c-1.12,2.48-2.86,4.48-5.22,6c-2.36,1.52-4.98,2.28-7.85,2.28c-2.96,0-5.6-0.72-7.91-2.16
		c-2.32-1.44-4.12-3.38-5.4-5.82c-1.28-2.44-1.92-5.29-1.92-8.57c0-3.28,0.64-6.15,1.92-8.63c1.28-2.48,3.04-4.42,5.28-5.82
		c2.24-1.4,4.84-2.1,7.79-2.1c2.88,0,5.5,0.7,7.85,2.1c2.36,1.4,4.1,3.26,5.22,5.58l14.87-5.28c-2.24-5.59-5.84-9.87-10.79-12.83
		c-4.96-2.96-10.43-4.44-16.43-4.44c-6.24,0-11.75,1.34-16.55,4.02c-4.8,2.68-8.56,6.38-11.27,11.09
		c-2.72,4.72-4.08,10.15-4.08,16.31c0,6.08,1.36,11.49,4.08,16.25c2.72,4.76,6.51,8.47,11.39,11.15c4.88,2.68,10.43,4.02,16.67,4.02
		c6.07,0,11.57-1.56,16.49-4.68c4.92-3.12,8.53-7.51,10.85-13.19L393.56,255.3z"/>
	<path d="M465.39,222.26c-3.84-4.44-9.43-6.66-16.79-6.66c-4.48,0-8.42,1.18-11.81,3.54c-2.15,1.49-3.99,3.4-5.53,5.72l-0.05-32.52
		h-15.83L415.5,277h15.83l-0.04-31.42h0.04c0-5.04,1.1-8.83,3.3-11.39c2.2-2.56,5.34-3.8,9.41-3.72c2.24,0,4.2,0.5,5.88,1.5
		c1.68,1,3,2.62,3.96,4.86c0.96,2.24,1.44,5.4,1.44,9.47V277h15.83v-34.3C471.15,233.52,469.23,226.7,465.39,222.26z"/>
	<path d="M59.3,301.12c0.32-0.22,0.59-0.46,0.82-0.73c0.47-0.56,0.71-1.18,0.71-1.86c0-0.84-0.2-1.54-0.58-2.1
		c-0.39-0.56-0.94-0.99-1.64-1.27s-1.52-0.43-2.46-0.43l-2.01,0.02v0h-2.61v13.3h1.07h1.54h2.63c0.91,0,1.7-0.15,2.38-0.44
		c0.68-0.29,1.2-0.72,1.58-1.29c0.38-0.57,0.57-1.26,0.57-2.07c0-0.94-0.26-1.69-0.79-2.26C60.18,301.64,59.77,301.35,59.3,301.12z
		 M54.14,296.82h1.85c0.65-0.01,1.16,0.13,1.54,0.43c0.38,0.3,0.57,0.71,0.57,1.25c0,0.53-0.17,0.94-0.51,1.23
		c-0.34,0.29-0.8,0.44-1.38,0.44h-2.07V296.82z M58.02,305.28c-0.36,0.31-0.86,0.47-1.5,0.47h-2.38v-3.45l0.05,0h2.12
		c0.7-0.01,1.25,0.14,1.66,0.46s0.6,0.75,0.6,1.29C58.57,304.56,58.38,304.97,58.02,305.28z"/>
	<path d="M79.55,303.09c0,0.57-0.12,1.07-0.36,1.49c-0.24,0.42-0.58,0.75-1.01,0.98c-0.44,0.23-0.95,0.34-1.53,0.34
		s-1.1-0.11-1.53-0.34c-0.44-0.23-0.77-0.55-1.01-0.98c-0.24-0.42-0.36-0.92-0.36-1.49v-8.34h-2.67v8.34c0,1.06,0.22,1.99,0.67,2.76
		c0.45,0.78,1.09,1.38,1.92,1.81c0.83,0.43,1.81,0.65,2.94,0.65c1.14,0,2.14-0.21,2.97-0.65s1.49-1.04,1.95-1.81s0.69-1.7,0.69-2.76
		v-8.34h-2.67V303.09z"/>
	<path d="M98.64,300.43l-1.79-0.44c-0.51-0.13-0.91-0.31-1.2-0.55c-0.29-0.24-0.44-0.57-0.44-0.99c0-0.53,0.19-0.94,0.56-1.24
		c0.37-0.29,0.88-0.44,1.53-0.44c0.64,0,1.16,0.15,1.58,0.46c0.42,0.3,0.7,0.67,0.86,1.1l2.59-0.78c-0.23-0.62-0.57-1.16-1.01-1.61
		c-0.44-0.46-0.99-0.81-1.65-1.05c-0.66-0.25-1.42-0.37-2.29-0.37c-1.56,0-2.77,0.35-3.62,1.05c-0.85,0.7-1.28,1.68-1.28,2.94
		c0,0.66,0.14,1.24,0.43,1.73c0.29,0.49,0.68,0.91,1.19,1.24c0.51,0.34,1.09,0.59,1.75,0.75l1.77,0.46c0.6,0.15,1.07,0.37,1.41,0.66
		c0.34,0.28,0.52,0.64,0.52,1.05c0,0.48-0.22,0.87-0.65,1.18c-0.44,0.3-1,0.45-1.69,0.44c-0.65-0.01-1.19-0.17-1.62-0.48
		c-0.43-0.31-0.73-0.68-0.9-1.11l-2.61,0.76c0.09,0.41,0.29,0.79,0.59,1.16c0.31,0.37,0.69,0.7,1.16,1c0.47,0.3,1,0.53,1.6,0.69
		c0.6,0.16,1.24,0.25,1.93,0.25c1.05,0,1.95-0.16,2.69-0.49c0.74-0.33,1.31-0.79,1.7-1.38c0.39-0.59,0.58-1.28,0.58-2.06
		c0-0.89-0.33-1.69-0.98-2.41C100.72,301.21,99.81,300.71,98.64,300.43z"/>
	<rect x="112.42" y="294.75" width="2.67" height="13.3"/>
	<polygon points="135.31,303.71 128.65,294.75 125.86,294.75 125.86,308.05 128.53,308.07 128.53,298.93 135.31,308.05 
		137.97,308.05 137.97,294.75 135.31,294.75 	"/>
	<polygon points="151.4,302.46 156.55,302.46 156.55,300.14 151.4,300.14 151.4,297.12 157.37,297.12 157.37,294.75 151.4,294.75 
		150.76,294.75 148.73,294.75 148.73,308.05 150.76,308.05 151.4,308.05 157.45,308.05 157.45,305.67 151.4,305.67 	"/>
	<path d="M173.86,300.43l-1.79-0.44c-0.51-0.13-0.91-0.31-1.2-0.55c-0.29-0.24-0.44-0.57-0.44-0.99c0-0.53,0.19-0.94,0.56-1.24
		c0.37-0.29,0.88-0.44,1.53-0.44c0.64,0,1.16,0.15,1.58,0.46c0.42,0.3,0.7,0.67,0.86,1.1l2.59-0.78c-0.23-0.62-0.57-1.16-1.01-1.61
		c-0.44-0.46-0.99-0.81-1.65-1.05c-0.66-0.25-1.42-0.37-2.29-0.37c-1.56,0-2.77,0.35-3.62,1.05c-0.85,0.7-1.28,1.68-1.28,2.94
		c0,0.66,0.14,1.24,0.43,1.73c0.29,0.49,0.68,0.91,1.19,1.24c0.51,0.34,1.09,0.59,1.75,0.75l1.77,0.46c0.6,0.15,1.07,0.37,1.41,0.66
		c0.34,0.28,0.52,0.64,0.52,1.05c0,0.48-0.22,0.87-0.65,1.18c-0.44,0.3-1,0.45-1.69,0.44c-0.65-0.01-1.19-0.17-1.62-0.48
		c-0.43-0.31-0.73-0.68-0.9-1.11l-2.61,0.76c0.09,0.41,0.29,0.79,0.59,1.16c0.31,0.37,0.69,0.7,1.16,1c0.47,0.3,1,0.53,1.6,0.69
		c0.6,0.16,1.24,0.25,1.93,0.25c1.05,0,1.95-0.16,2.69-0.49c0.74-0.33,1.31-0.79,1.7-1.38c0.39-0.59,0.58-1.28,0.58-2.06
		c0-0.89-0.33-1.69-0.98-2.41C175.94,301.21,175.03,300.71,173.86,300.43z"/>
	<path d="M193.5,300.43l-1.79-0.44c-0.51-0.13-0.91-0.31-1.2-0.55c-0.29-0.24-0.44-0.57-0.44-0.99c0-0.53,0.19-0.94,0.56-1.24
		c0.37-0.29,0.88-0.44,1.53-0.44c0.64,0,1.16,0.15,1.58,0.46c0.42,0.3,0.7,0.67,0.86,1.1l2.59-0.78c-0.23-0.62-0.57-1.16-1.01-1.61
		c-0.44-0.46-0.99-0.81-1.65-1.05c-0.66-0.25-1.42-0.37-2.29-0.37c-1.56,0-2.77,0.35-3.62,1.05c-0.85,0.7-1.28,1.68-1.28,2.94
		c0,0.66,0.14,1.24,0.43,1.73c0.29,0.49,0.68,0.91,1.19,1.24c0.51,0.34,1.09,0.59,1.75,0.75l1.77,0.46c0.6,0.15,1.07,0.37,1.41,0.66
		c0.34,0.28,0.52,0.64,0.52,1.05c0,0.48-0.22,0.87-0.65,1.18c-0.44,0.3-1,0.45-1.69,0.44c-0.65-0.01-1.19-0.17-1.62-0.48
		c-0.43-0.31-0.73-0.68-0.9-1.11l-2.61,0.76c0.09,0.41,0.29,0.79,0.59,1.16c0.31,0.37,0.69,0.7,1.16,1c0.47,0.3,1,0.53,1.6,0.69
		c0.6,0.16,1.24,0.25,1.93,0.25c1.05,0,1.95-0.16,2.69-0.49c0.74-0.33,1.31-0.79,1.7-1.38c0.39-0.59,0.58-1.28,0.58-2.06
		c0-0.89-0.33-1.69-0.98-2.41C195.58,301.21,194.67,300.71,193.5,300.43z"/>
	<path d="M228.55,304.74c-0.36,0.37-0.77,0.66-1.23,0.86s-0.97,0.31-1.53,0.31c-0.81,0-1.52-0.19-2.15-0.58
		c-0.62-0.39-1.11-0.92-1.46-1.6s-0.53-1.46-0.53-2.35c0-0.89,0.17-1.67,0.52-2.34c0.34-0.67,0.83-1.2,1.44-1.59
		c0.62-0.39,1.32-0.58,2.12-0.58c0.55,0,1.05,0.1,1.52,0.29c0.47,0.2,0.88,0.47,1.25,0.82c0.36,0.35,0.66,0.76,0.88,1.22l2.48-0.89
		c-0.33-0.75-0.79-1.41-1.39-1.99s-1.31-1.03-2.12-1.35c-0.81-0.32-1.68-0.48-2.61-0.48c-1.33,0-2.5,0.29-3.52,0.88
		c-1.02,0.59-1.82,1.4-2.41,2.43c-0.58,1.03-0.88,2.22-0.88,3.56c0,1.34,0.29,2.53,0.88,3.56c0.58,1.03,1.39,1.84,2.42,2.43
		c1.03,0.59,2.2,0.88,3.53,0.88c0.95,0,1.83-0.16,2.63-0.49c0.81-0.33,1.51-0.79,2.12-1.39c0.6-0.59,1.07-1.28,1.39-2.05l-2.48-0.87
		C229.19,303.95,228.91,304.38,228.55,304.74z"/>
	<path d="M251.47,295.42c-1.05-0.59-2.26-0.88-3.63-0.88c-1.36,0-2.57,0.29-3.62,0.87s-1.87,1.39-2.47,2.42
		c-0.6,1.03-0.9,2.22-0.9,3.56c0,1.34,0.3,2.53,0.9,3.56c0.6,1.03,1.43,1.84,2.49,2.43s2.28,0.88,3.66,0.88
		c1.36,0,2.57-0.29,3.61-0.88c1.04-0.59,1.86-1.4,2.45-2.43c0.59-1.03,0.89-2.21,0.89-3.54c0-1.34-0.3-2.53-0.9-3.56
		C253.35,296.82,252.52,296.01,251.47,295.42z M251.58,303.73c-0.36,0.68-0.85,1.21-1.49,1.6c-0.64,0.39-1.37,0.58-2.18,0.58
		c-0.85,0-1.59-0.19-2.24-0.58c-0.65-0.39-1.16-0.92-1.52-1.59c-0.36-0.67-0.55-1.44-0.55-2.32c0-0.89,0.18-1.67,0.55-2.34
		c0.36-0.67,0.87-1.2,1.51-1.59c0.64-0.39,1.37-0.58,2.19-0.58c0.84,0,1.59,0.19,2.22,0.58c0.64,0.39,1.14,0.92,1.5,1.59
		c0.36,0.67,0.55,1.44,0.55,2.32S251.93,303.05,251.58,303.73z"/>
	<polygon points="274.26,303.71 267.6,294.75 264.81,294.75 264.81,308.05 267.48,308.07 267.48,298.93 274.26,308.05 
		276.92,308.05 276.92,294.75 274.26,294.75 	"/>
	<path d="M293.53,300.43l-1.79-0.44c-0.51-0.13-0.91-0.31-1.2-0.55c-0.29-0.24-0.44-0.57-0.44-0.99c0-0.53,0.19-0.94,0.56-1.24
		c0.37-0.29,0.88-0.44,1.53-0.44c0.64,0,1.16,0.15,1.58,0.46c0.42,0.3,0.7,0.67,0.86,1.1l2.59-0.78c-0.23-0.62-0.57-1.16-1.01-1.61
		c-0.44-0.46-0.99-0.81-1.65-1.05s-1.42-0.37-2.29-0.37c-1.56,0-2.77,0.35-3.62,1.05s-1.28,1.68-1.28,2.94
		c0,0.66,0.14,1.24,0.43,1.73c0.29,0.49,0.68,0.91,1.19,1.24c0.51,0.34,1.09,0.59,1.76,0.75l1.77,0.46c0.6,0.15,1.07,0.37,1.41,0.66
		c0.34,0.28,0.52,0.64,0.52,1.05c0,0.48-0.22,0.87-0.65,1.18c-0.44,0.3-1,0.45-1.69,0.44c-0.65-0.01-1.19-0.17-1.62-0.48
		s-0.73-0.68-0.9-1.11l-2.61,0.76c0.09,0.41,0.29,0.79,0.6,1.16c0.3,0.37,0.69,0.7,1.16,1c0.47,0.3,1,0.53,1.6,0.69
		c0.6,0.16,1.24,0.25,1.93,0.25c1.05,0,1.95-0.16,2.69-0.49c0.74-0.33,1.31-0.79,1.7-1.38s0.58-1.28,0.58-2.06
		c0-0.89-0.32-1.69-0.97-2.41S294.7,300.71,293.53,300.43z"/>
	<path d="M315.6,303.09c0,0.57-0.12,1.07-0.36,1.49c-0.24,0.42-0.58,0.75-1.01,0.98c-0.44,0.23-0.95,0.34-1.53,0.34
		c-0.58,0-1.09-0.11-1.53-0.34c-0.44-0.23-0.77-0.55-1.01-0.98c-0.24-0.42-0.36-0.92-0.36-1.49v-8.34h-2.67v8.34
		c0,1.06,0.22,1.99,0.67,2.76c0.45,0.78,1.09,1.38,1.92,1.81s1.81,0.65,2.94,0.65c1.14,0,2.14-0.21,2.97-0.65s1.49-1.04,1.95-1.81
		c0.46-0.78,0.69-1.7,0.69-2.76v-8.34h-2.67V303.09z"/>
	<polygon points="331.51,294.75 328.84,294.75 328.84,308.05 330.56,308.05 331.51,308.05 337.52,308.05 337.52,305.67 
		331.51,305.67 	"/>
	<polygon points="344.19,297.12 348.28,297.12 348.28,308.05 350.95,308.05 350.95,297.12 355.03,297.12 355.03,294.75 
		344.19,294.75 	"/>
	<path d="M370.06,294.75h-2.5h-0.18l-5.38,13.3h2.83l1.15-2.93h5.66l1.15,2.93h2.83l-5.38-13.3H370.06z M366.89,302.82l1.93-4.9
		l1.93,4.9H366.89z"/>
	<polygon points="394.51,303.71 387.85,294.75 385.06,294.75 385.06,308.05 387.73,308.07 387.73,298.93 394.51,308.05 
		397.17,308.05 397.17,294.75 394.51,294.75 	"/>
	<path d="M416.75,304.74c-0.36,0.37-0.77,0.66-1.23,0.86c-0.46,0.21-0.97,0.31-1.53,0.31c-0.81,0-1.52-0.19-2.14-0.58
		c-0.62-0.39-1.11-0.92-1.46-1.6s-0.53-1.46-0.53-2.35c0-0.89,0.17-1.67,0.52-2.34c0.34-0.67,0.83-1.2,1.44-1.59
		s1.32-0.58,2.12-0.58c0.54,0,1.05,0.1,1.52,0.29c0.47,0.2,0.88,0.47,1.25,0.82c0.36,0.35,0.66,0.76,0.88,1.22l2.48-0.89
		c-0.33-0.75-0.79-1.41-1.39-1.99c-0.61-0.58-1.31-1.03-2.12-1.35c-0.81-0.32-1.68-0.48-2.61-0.48c-1.33,0-2.5,0.29-3.52,0.88
		c-1.02,0.59-1.82,1.4-2.41,2.43c-0.59,1.03-0.88,2.22-0.88,3.56c0,1.34,0.29,2.53,0.88,3.56c0.58,1.03,1.39,1.84,2.42,2.43
		s2.2,0.88,3.53,0.88c0.95,0,1.83-0.16,2.63-0.49c0.8-0.33,1.51-0.79,2.12-1.39c0.6-0.59,1.07-1.28,1.39-2.05l-2.48-0.87
		C417.4,303.95,417.11,304.38,416.75,304.74z"/>
	<polygon points="434.69,299.87 431.56,294.75 428.52,294.75 433.35,302.43 433.35,308.05 436.03,308.05 436.03,302.43 
		440.86,294.75 437.82,294.75 	"/>
</g>
</svg>
