<svg  viewBox="0 0 50 40" fill="none" xmlns="http://www.w3.org/2000/svg">
<path d="M3.95787 0.0030033C1.79482 0.0030033 0 1.84921 0 4.07396V35.929C0 38.1539 1.79492 40 3.95787 40H34.928C37.0911 40 38.8859 38.1538 38.8859 35.929V25.8759L49.5102 14.9654C49.8237 14.6438 50 14.2069 50 13.7514C50 13.2959 49.8237 12.859 49.5102 12.5374L44.4758 7.35916C44.1581 7.03353 43.7264 6.85298 43.2777 6.85896C42.8414 6.86254 42.424 7.0423 42.1148 7.35916L38.8857 10.6801V4.07335C38.8857 1.8485 37.0908 0.00239143 34.9278 0.00239143C34.8697 -0.000797142 34.812 -0.000797142 34.7542 0.00239143C34.3121 0.0259072 33.8971 0.229182 33.601 0.567568C33.3046 0.905557 33.1512 1.35116 33.174 1.80596C33.1969 2.26075 33.3949 2.6872 33.7235 2.9921C34.0525 3.29662 34.4857 3.45444 34.9279 3.43093C35.3061 3.43093 35.5525 3.68443 35.5525 4.07343V14.1266L26.0395 23.9294C25.7271 24.2518 25.5524 24.6887 25.5536 25.1434V30.2861C25.5536 30.7405 25.7291 31.1765 26.0414 31.4982C26.3541 31.8194 26.7781 32 27.2198 32.0004H32.2197C32.6622 32.0012 33.0865 31.8214 33.4 31.5002L35.5525 29.2861V35.9288C35.5525 36.3178 35.306 36.5713 34.9278 36.5713H3.95767C3.57947 36.5713 3.33302 36.3178 3.33302 35.9288V4.0737C3.33302 3.68469 3.57947 3.4312 3.95767 3.4312H29.4421C29.8881 3.43758 30.3182 3.25981 30.6356 2.93777C30.9533 2.61532 31.1323 2.1757 31.1323 1.71693C31.1323 1.25818 30.9533 0.818155 30.6356 0.496094C30.3182 0.174054 29.8881 -0.00371091 29.4421 0.00266622L3.95787 0.0030033ZM8.15918 8.00228C7.71705 8.02619 7.30242 8.22947 7.00598 8.56746C6.70954 8.90584 6.55609 9.35105 6.57896 9.80585C6.60221 10.2606 6.79984 10.6871 7.12882 10.992C7.45781 11.2969 7.89065 11.4547 8.33281 11.4308H30.5536C30.9996 11.4372 31.4297 11.2594 31.7474 10.9374C32.0648 10.6154 32.2438 10.1753 32.2438 9.71656C32.2438 9.2578 32.0648 8.81818 31.7474 8.49572C31.4297 8.17368 30.9995 7.99591 30.5536 8.00229H8.33281C8.27507 7.9995 8.21694 7.9995 8.15921 8.00229L8.15918 8.00228ZM43.2957 11.0023L45.9691 13.752L44.1812 15.591L41.5079 12.8413L43.2957 11.0023ZM8.15918 14.8593C7.71705 14.8828 7.30242 15.0861 7.00598 15.4241C6.70954 15.7624 6.55609 16.2081 6.57896 16.6625C6.60221 17.1172 6.79984 17.5441 7.12882 17.8486C7.45781 18.1535 7.89065 18.3113 8.33281 18.2874H27.776C28.222 18.2938 28.6521 18.1164 28.9698 17.794C29.2872 17.472 29.4662 17.0323 29.4662 16.5732C29.4662 16.1144 29.2872 15.6748 28.9698 15.3527C28.6521 15.0303 28.222 14.8525 27.776 14.8593H8.33281C8.27507 14.8561 8.21694 14.8561 8.15921 14.8593L8.15918 14.8593ZM39.1472 15.2698L41.8205 18.0195L31.5266 28.5729H28.8877V25.8586L39.1472 15.2698ZM8.15918 21.7159C7.71705 21.7394 7.30242 21.9427 7.00598 22.2811C6.70954 22.6191 6.55609 23.0647 6.57896 23.5195C6.60221 23.9739 6.79984 24.4007 7.12882 24.7052C7.45781 25.0101 7.89065 25.168 8.33281 25.1441H21.6653C22.1117 25.1508 22.5414 24.9731 22.8591 24.6506C23.1769 24.3286 23.3555 23.889 23.3555 23.4302C23.3555 22.971 23.1769 22.5314 22.8591 22.2094C22.5414 21.8869 22.1116 21.7096 21.6653 21.7159H8.33281C8.27507 21.7127 8.21694 21.7127 8.15921 21.7159L8.15918 21.7159ZM8.15918 28.5725C7.71705 28.596 7.30242 28.7993 7.00598 29.1377C6.70954 29.4757 6.55609 29.9213 6.57896 30.3761C6.60221 30.8309 6.79984 31.2573 7.12882 31.5622C7.45781 31.8667 7.89065 32.0246 8.33281 32.0011H21.6653C22.1117 32.0074 22.5414 31.8297 22.8591 31.5076C23.1769 31.1852 23.3555 30.7456 23.3555 30.2868C23.3555 29.828 23.1769 29.388 22.8591 29.066C22.5414 28.7439 22.1116 28.5661 21.6653 28.5725H8.33281C8.27507 28.5693 8.21694 28.5693 8.15921 28.5725L8.15918 28.5725Z" fill="#C3C3C3"/>
</svg>
