<svg  viewBox="0 0 18 12" fill="none" xmlns="http://www.w3.org/2000/svg">
<path d="M1.39997 0C0.634752 0 0 0.634753 0 1.39997V10.6C0 11.3652 0.634752 12 1.39997 12H16.6C17.3652 12 18 11.3652 18 10.6V1.39997C18 0.634753 17.3652 0 16.6 0H1.39997ZM1.50628 1.20008H16.4938L10.9377 5.66866C10.8432 5.71149 10.7613 5.77832 10.7003 5.8623L9.00022 7.23117L7.28146 5.84359C7.22845 5.77858 7.16246 5.72529 7.08769 5.68734C7.08364 5.68525 7.07945 5.68315 7.07527 5.68106L1.50628 1.20008ZM1.20005 2.49376L5.78114 6.18127L1.20005 9.21254V2.49376ZM16.8001 2.49376V9.21236L12.219 6.1811L16.8001 2.49376ZM6.76258 6.96878L8.62501 8.46878C8.73146 8.55402 8.86371 8.60034 9.00001 8.60034C9.13631 8.60034 9.26857 8.55402 9.37502 8.46878L11.2375 6.96878L16.7939 10.6499C16.7741 10.7408 16.7027 10.7998 16.6001 10.7998H1.40006C1.29752 10.7998 1.22609 10.7408 1.20628 10.6499L6.76258 6.96878Z" />
</svg>
