<svg  viewBox="0 0 66 39" fill="none" xmlns="http://www.w3.org/2000/svg">
<path d="M32.9999 0.000547663C29.6355 0.000547663 26.5807 1.41358 24.3981 3.65681C22.6199 2.33431 20.3969 1.5009 17.9998 1.5009C12.1273 1.5009 7.50005 6.15837 7.50005 12.0003C7.50005 14.6489 8.4182 17.1088 10.031 19.0077C4.15851 21.8667 0 27.7499 0 34.5C0 35.3282 0.671215 35.9998 1.49988 35.9998H12.7966C12.7568 36.4968 12.75 36.9943 12.75 37.4997C12.75 38.3283 13.4217 38.9995 14.2499 39H51.7501C52.5783 38.9995 53.25 38.3283 53.25 37.4997C53.25 29.7917 48.4996 22.993 41.7655 19.7815C43.7012 17.7455 45.0002 15.1062 45.0002 12.0003C45.0002 9.83191 44.4195 7.80577 43.4062 6.04748C44.6931 5.0938 46.3008 4.50053 48.0001 4.50053C52.3339 4.50053 55.5001 7.69435 55.5001 12.0003C55.5001 14.5987 54.3026 16.9005 52.3832 18.281C51.9348 18.6117 51.7062 19.163 51.7899 19.7139C51.8731 20.2648 52.255 20.7236 52.7813 20.9061C58.1777 22.6916 62.2489 27.4407 62.8831 32.9996H57.7504C57.3486 32.9938 56.962 33.1492 56.6758 33.4312C56.3896 33.7132 56.229 34.0977 56.229 34.4994C56.229 34.9012 56.3896 35.2857 56.6758 35.5677C56.962 35.8497 57.3486 36.005 57.7504 35.9993H64.5001C65.3288 35.9993 66 35.3276 66 34.4995C66 27.75 61.8414 21.8667 55.969 19.0072C57.5819 17.1081 58.5 14.6483 58.5 11.9997C58.5 6.15782 53.8726 1.50035 48.0002 1.50035C45.6031 1.50035 43.3801 2.33372 41.6019 3.65626C39.4193 1.41303 36.3646 0 33.0001 0L32.9999 0.000547663ZM32.9999 3.00071C37.9883 3.00071 41.9999 7.01214 41.9999 12.0003C41.9999 14.9712 40.4451 17.3416 38.1091 19.0313C37.6618 19.365 37.4368 19.9201 37.5252 20.4715C37.6142 21.0229 38.0013 21.4791 38.5313 21.6564C44.7982 23.7421 49.4737 29.4355 50.1093 35.9997H15.8904C16.526 29.4358 21.2015 23.7425 27.4684 21.6564C27.9984 21.4791 28.3855 21.0229 28.4745 20.4715C28.5629 19.9201 28.3379 19.3651 27.8906 19.0313C25.5547 17.3416 23.9998 14.9712 23.9998 12.0003C23.9998 7.01214 28.0114 3.00071 32.9997 3.00071H32.9999ZM17.9998 4.50053C19.6991 4.50053 21.3067 5.09377 22.5938 6.04748C21.5804 7.80577 20.9997 9.83191 20.9997 12.0003C20.9997 15.1061 22.2987 17.7453 24.2344 19.7815C18.8511 22.348 14.7468 27.2154 13.3123 32.9997H3.11694C3.75101 27.4408 7.82228 22.6917 13.2187 20.9062C13.745 20.7236 14.1269 20.2648 14.2101 19.714C14.2938 19.1631 14.0652 18.6117 13.6168 18.2811C11.6973 16.9005 10.4999 14.5988 10.4999 12.0004C10.4999 7.69444 13.6661 4.50062 17.9999 4.50062L17.9998 4.50053Z" fill="#C3C3C3"/>
</svg>
