<svg  viewBox="0 0 15 15" fill="none" xmlns="http://www.w3.org/2000/svg">
<path d="M14.448 10.4239L12.6732 8.64754C12.3227 8.28362 11.8991 8.09271 11.4502 8.09271C11.0042 8.09271 10.5777 8.28362 10.2167 8.64307L9.292 9.56778C9.24577 9.54391 9.20103 9.52154 9.15926 9.50066C9.05039 9.44697 8.94598 9.39328 8.85648 9.3366C7.91836 8.74151 7.06374 7.96146 6.24194 6.95472C5.87951 6.49684 5.62893 6.11205 5.44699 5.7332C5.68116 5.51396 5.9019 5.29024 6.1107 5.07547C6.1987 4.98598 6.29117 4.89351 6.38066 4.80402C6.75053 4.43415 6.94594 4.00311 6.94594 3.55864C6.94594 3.11121 6.75055 2.68017 6.38066 2.31327L5.49921 1.43181C5.39928 1.33189 5.30382 1.23494 5.2054 1.13203L5.20092 1.12756C5.00852 0.929195 4.80122 0.718907 4.59389 0.526498C4.24191 0.181963 3.82131 0 3.37685 0C2.93536 0 2.51031 0.183452 2.14789 0.529471L1.03675 1.64061C0.587812 2.08507 0.334258 2.62796 0.282058 3.25439C0.222399 4.00013 0.358124 4.78763 0.70863 5.72875C1.2366 7.16354 2.03157 8.49093 3.20983 9.90638C4.63717 11.6126 6.36118 12.9623 8.33163 13.9185L8.33312 13.9199C9.09525 14.2809 10.1154 14.7045 11.2445 14.7775H11.2579C11.3235 14.7805 11.3906 14.7835 11.4622 14.7835C12.2721 14.7835 12.9254 14.5031 13.4578 13.9259C13.4668 13.9155 13.4787 13.9035 13.4906 13.8871C13.6398 13.7096 13.8098 13.5426 13.9918 13.3681L14.0335 13.3278C14.2036 13.1653 14.3378 13.031 14.4571 12.9072C14.8136 12.5359 15.0015 12.1048 15 11.6589C15 11.2115 14.8091 10.7849 14.4482 10.424L14.448 10.4239ZM1.51262 3.35892C1.54245 3.02035 1.66923 2.75041 1.90936 2.51027L3.00858 1.41105C3.12939 1.29472 3.25616 1.23207 3.37398 1.23207C3.51716 1.23207 3.64394 1.33051 3.72449 1.41254L3.73344 1.42149C3.90048 1.5766 4.06155 1.74066 4.2316 1.91368L4.30916 1.99273C4.35987 2.04493 4.41207 2.09713 4.46427 2.15082C4.51498 2.20153 4.56569 2.25373 4.6164 2.30594L5.50085 3.19039C5.59332 3.28286 5.70369 3.42306 5.70369 3.56326C5.70369 3.70346 5.59332 3.84365 5.50085 3.93613C5.45462 3.98237 5.40838 4.0286 5.36214 4.07633C5.3174 4.12256 5.27117 4.1688 5.22493 4.21503L5.16229 4.27768C4.91321 4.52974 4.67607 4.76837 4.42102 4.99656L4.39566 5.02191C4.00937 5.4082 4.14211 5.80791 4.18537 5.93917C4.18835 5.94961 4.19133 5.95707 4.19432 5.96602L4.20028 5.98093C4.4419 6.55963 4.77301 7.09955 5.27414 7.73042L5.27563 7.73191C6.17797 8.84455 7.12954 9.71109 8.18699 10.3837C8.30332 10.4598 8.42115 10.5195 8.53599 10.5761C8.55687 10.5866 8.57925 10.597 8.60013 10.6089L8.60162 10.6104C8.7105 10.6641 8.8149 10.7178 8.9044 10.7745L8.93125 10.7894C8.9402 10.7939 8.94914 10.7999 8.95809 10.8043C9.08934 10.8714 9.22507 10.9058 9.3608 10.9058C9.59049 10.9058 9.79929 10.8133 9.98125 10.6298L11.0879 9.52317C11.1744 9.43666 11.3057 9.33524 11.4488 9.33524C11.595 9.33524 11.7218 9.44859 11.7859 9.5172L11.7889 9.52019L13.5757 11.304C13.8322 11.5605 13.8277 11.7872 13.5638 12.0616L13.5608 12.0646C13.4355 12.1989 13.3027 12.3271 13.1775 12.4479L13.1417 12.4822C12.9418 12.6761 12.736 12.876 12.5436 13.1057C12.2512 13.4189 11.9186 13.5576 11.4652 13.5576C11.4235 13.5576 11.3758 13.5546 11.328 13.5516C10.4018 13.492 9.52931 13.1265 8.87158 12.8133C7.06092 11.9364 5.47559 10.6955 4.1616 9.12335C3.07729 7.8183 2.34947 6.60576 1.86772 5.30655C1.58286 4.53994 1.46801 3.91949 1.51274 3.35868L1.51262 3.35892Z" />
</svg>
