<svg  viewBox="0 0 11 16" fill="none" xmlns="http://www.w3.org/2000/svg">
<path d="M5.46257 15.2335C5.30244 15.2339 5.14965 15.1656 5.04296 15.0463C4.84068 14.8214 0 9.37373 0 5.49987C0 3.53505 1.04848 1.71926 2.75005 0.736827C4.45181 -0.245609 6.54838 -0.245609 8.25014 0.736827C9.95171 1.71926 11 3.53505 11 5.49987C11 9.37383 6.12949 14.8141 5.91995 15.0463C5.80461 15.1759 5.63601 15.245 5.46289 15.2335H5.46257ZM5.46257 1.13162C4.30195 1.13162 3.18897 1.59262 2.3682 2.41338C1.54761 3.23397 1.08662 4.34699 1.08662 5.50756C1.08662 8.34003 4.29371 12.4239 5.46261 13.8174C6.63152 12.4237 9.83861 8.33998 9.83861 5.50756C9.83861 4.34694 9.3776 3.23397 8.55684 2.41338C7.73626 1.59261 6.62323 1.13162 5.46266 1.13162H5.46257ZM5.46257 7.83067C4.84652 7.83067 4.25566 7.58587 3.82005 7.15027C3.38445 6.71466 3.13964 6.12381 3.13964 5.50775C3.13964 4.8917 3.38445 4.30084 3.82005 3.86524C4.25566 3.42963 4.84652 3.18483 5.46257 3.18483C6.07862 3.18483 6.66948 3.42963 7.10508 3.86524C7.54069 4.30084 7.78549 4.8917 7.78549 5.50775C7.78342 6.12323 7.53805 6.71298 7.10282 7.1482C6.66778 7.58343 6.07809 7.8288 5.46257 7.83067ZM5.46257 4.30142C5.14457 4.30142 4.83953 4.42768 4.61467 4.65254C4.39 4.8774 4.26355 5.18242 4.26355 5.50024C4.26355 5.81824 4.39 6.12328 4.61467 6.34814C4.83953 6.573 5.14455 6.69926 5.46257 6.69926C5.78057 6.69926 6.08541 6.573 6.31027 6.34814C6.53513 6.12328 6.66139 5.81826 6.66139 5.50024C6.66139 5.18243 6.53513 4.8774 6.31027 4.65254C6.08541 4.42768 5.78059 4.30142 5.46257 4.30142Z" />
</svg>
