<svg viewBox="0 0 50 50" fill="none" xmlns="http://www.w3.org/2000/svg">
<path d="M48.3305 25.1139C48.736 25.1971 49.1639 25.0915 49.4889 24.8279C49.814 24.5665 50 24.1694 50 23.7527V12.5C50 11.7332 49.3778 11.111 48.611 11.111H38.4026C38.7221 10.2251 38.889 9.28893 38.889 8.33333C38.889 3.73881 35.1502 0 30.5557 0C25.9612 0 22.2224 3.73881 22.2224 8.33333C22.2224 9.28896 22.3889 10.2251 22.7083 11.111H12.5C11.7332 11.111 11.111 11.7332 11.111 12.5V22.7083C10.2251 22.3889 9.28893 22.2224 8.33333 22.2224C3.73881 22.2224 0 25.9612 0 30.5557C0 35.1502 3.73881 38.889 8.33333 38.889C9.28896 38.889 10.2251 38.7226 11.111 38.4031V48.611C11.111 49.3778 11.7332 50 12.5 50H23.75C24.1667 50 24.561 49.814 24.8251 49.4889C25.0888 49.1667 25.1944 48.7416 25.1111 48.3333C25.039 47.9748 25 47.6028 25 47.2224C25 44.1583 27.4917 41.6667 30.5557 41.6667C33.6197 41.6667 36.1114 44.1583 36.1114 47.2224C36.1114 47.6028 36.0724 47.9753 35.9975 48.3333C35.9142 48.7416 36.0198 49.1667 36.2835 49.4889C36.5499 49.814 36.9443 50 37.3609 50H48.6109C49.3778 50 50 49.3778 50 48.611V37.3582C50 36.9415 49.814 36.5444 49.4889 36.2803C49.1667 36.0166 48.736 35.911 48.3305 35.9943C44.9665 36.7002 41.6666 33.989 41.6666 30.5557C41.6666 27.1224 44.9692 24.414 48.3305 25.1139L48.3305 25.1139ZM47.2224 38.8889V47.2222H38.889C38.889 42.6277 35.1502 38.8889 30.5557 38.8889C25.9612 38.8889 22.2224 42.6277 22.2224 47.2222H13.889V36.0778C13.889 35.5528 13.5919 35.0696 13.1194 34.8361C12.6446 34.5999 12.0805 34.6529 11.6638 34.9724C10.6775 35.7164 9.528 36.1108 8.33324 36.1108C5.26919 36.1108 2.77752 33.6191 2.77752 30.5551C2.77752 27.491 5.26919 24.9993 8.33324 24.9993C9.52788 24.9993 10.6774 25.3937 11.661 26.1382C12.0804 26.4577 12.6417 26.5074 13.1166 26.2745C13.5918 26.0415 13.889 25.5583 13.889 25.0333V13.8889H25.0307C25.5557 13.8889 26.0388 13.5917 26.2751 13.1192C26.5113 12.6472 26.4555 12.0832 26.1388 11.6636C25.3943 10.6773 24.9999 9.52495 24.9999 8.33305C24.9999 5.269 27.4916 2.77733 30.5557 2.77733C33.6197 2.77733 36.1114 5.269 36.1114 8.33305C36.1114 9.52495 35.717 10.6772 34.9725 11.6608C34.6558 12.0802 34.6033 12.6443 34.8363 13.1164C35.0692 13.5889 35.5529 13.8888 36.0807 13.8888H47.2223V22.2221C42.6278 22.2221 38.889 25.9609 38.889 30.5555C38.889 35.15 42.6278 38.8888 47.2223 38.8888L47.2224 38.8889Z" fill="#C3C3C3"/>
</svg>
