<svg  viewBox="0 0 50 50" fill="none" xmlns="http://www.w3.org/2000/svg">
  <path d="M26.5007 15.3984C20.3635 15.3984 15.3983 20.3638 15.3983 26.5007C15.3983 32.6377 20.3637 37.6031 26.5007 37.6031C32.6377 37.6031 37.6031 32.6377 37.6031 26.5007C37.6031 20.3638 32.6377 15.3984 26.5007 15.3984ZM26.5007 34.4788C22.0934 34.4788 18.5228 30.9082 18.5228 26.5009C18.5228 22.0937 22.0934 18.5231 26.5007 18.5231C30.908 18.5231 34.4786 22.0937 34.4786 26.5009C34.4786 30.9082 30.908 34.4788 26.5007 34.4788Z" fill="#C3C3C3"/>
  <path d="M29.9039 26.5007C29.9039 28.3804 28.3804 29.9039 26.5007 29.9039C24.6211 29.9039 23.0975 28.3804 23.0975 26.5007C23.0975 24.6211 24.6211 23.0975 26.5007 23.0975C28.3804 23.0975 29.9039 24.6211 29.9039 26.5007" fill="#C3C3C3"/>
  <path d="M53.0013 24.9386H45.3021C44.5211 15.7889 37.2126 8.4803 28.0628 7.69923V0H24.9386V7.69923C15.7889 8.48028 8.4803 15.7888 7.69923 24.9386H0V28.0628H7.69923C8.48028 37.2125 15.7888 44.521 24.9386 45.3021V53.0013H28.0628V45.3021C37.2125 44.5211 44.521 37.2126 45.3021 28.0628H53.0013V24.9386ZM26.5007 42.2337C17.8531 42.2337 10.7677 35.1482 10.7677 26.5007C10.7677 17.8533 17.8533 10.7677 26.5007 10.7677C35.1482 10.7677 42.2337 17.8533 42.2337 26.5007C42.2337 35.1482 35.1482 42.2337 26.5007 42.2337Z" fill="#C3C3C3"/>
</svg>
