<svg  viewBox="0 0 54 54" fill="none" xmlns="http://www.w3.org/2000/svg">
<path d="M53.0013 24.9386H45.3021C44.5211 15.7889 37.2126 8.4803 28.0628 7.69923V0H24.9386V7.69923C15.7889 8.48028 8.4803 15.7888 7.69923 24.9386H0V28.0628H7.69923C8.48028 37.2125 15.7888 44.521 24.9386 45.3021V53.0013H28.0628V45.3021C37.2125 44.5211 44.521 37.2126 45.3021 28.0628H53.0013V24.9386ZM26.5007 42.2337C17.8531 42.2337 10.7677 35.1482 10.7677 26.5007C10.7677 17.8533 17.8533 10.7677 26.5007 10.7677C35.1482 10.7677 42.2337 17.8533 42.2337 26.5007C42.2337 35.1482 35.1482 42.2337 26.5007 42.2337Z" fill="#C3C3C3"/>
</svg>
